/* XPM */
static char *photoquick[] = {
/* columns rows colors chars-per-pixel */
"32 32 8 1 ",
"  c black",
". c #FFFF70705353",
"X c #00008B8B0000",
"o c orange",
"O c yellow",
"+ c blue",
"@ c #9696E9E9FFFF",
"# c None",
/* pixels */
"################################",
"################################",
"                                ",
" @@@@@@@@@@@@@@@@@@@@@@@@@@@@@@ ",
" @@@@@@@@@@@@@@@@@@@@@@@@@@@@@@ ",
" @@@@@@@@@@@@@@....@@@@@@@@@@@@ ",
" @@@@@@@@@@@@@@....@@@@@@@@@@@@ ",
" @@@@@@@@@@@@@@....@@@@@@@@@@@@ ",
" @@@@@@@@@@@@@@....@@@@@@@@@@@@ ",
" @@@@@@@@@@@@@@@@@@@@@@@@@@@@@@ ",
" @@@@@@@@@+@@@@@@@@@@@@@@@@@@@@ ",
" @@@@@@@++O+@@@@@@@@@@@@@@@@@@@ ",
" @@@@@@+OOOO+@@@@@@@@@@@@@@@@@@ ",
" @@@@++OOOOOO+@@@@@@@++@@@@@@@@ ",
" @@@+OOOOOOOOO+@@@+++OO+@@@@@@@ ",
" @++OOOOOOOoOOO+++OOOOOO+@@@@@@ ",
" +OOOOOOOOOOoOOO+OOOOOOOO+@@@@@ ",
" OOOOOOOOXOOOOOOO+OOOOOOOO+@@@@ ",
" OOOOOOOXXXOOOOOOO+OOOOOOOO+@@@ ",
" OOOOOOOXXXOOOOOOOO+OOOOOOOO+@@ ",
" OOOOOOOOXOOOOOOOOOOOOOOOOOOO+@ ",
" OOOXOOOOXOOOOXOOOOOOOOOOOOOOO+ ",
" OXOXOXOXOXOOXXXOOXOXOOOXOOXOOO ",
" XXOXXXXXOOXXOOOXXOXXXOXXXOXOXX ",
"                                ",
"################################",
"################################",
"################################",
"################################",
"################################",
"################################",
"################################"
};
